# xmcd
#
# Track frame offsets:
# 150
# 27044
# 55350
# 75823
# 100307
# 126576
# 146821
# 169950
# 193680
# 217341
# 238042
# 263073
# 289669
# 314546
#
# Disc length: 4522 seconds
#
#
# Revision: 2
# Processed by: cddbd v1.5.1PL0 Copyright (c) Steve Scherf et al.
# Submitted via: FreeRIP 2.942 
#
DISCID=d511a80e
DTITLE=Various Artist - Carnaval 2003 RJ
DYEAR=2002
DGENRE=Samba
TTITLE0=Mangueira 2003
TTITLE1=Beija-Flor 2003
TTITLE2=Imperatriz 2003
TTITLE3=Mocidade 2003
TTITLE4=Viradouro 2003
TTITLE5=Salgueiro 2003
TTITLE6=Grande Rio 2003
TTITLE7=Portela 2003
TTITLE8=Império Serrano 2003
TTITLE9=Unidos da Tijuca 2003
TTITLE10=Porto da Pedra 2003
TTITLE11=Caprichosos 2003
TTITLE12=Tradição 2003
TTITLE13=Acadêmicos de Santa Cruz 2003
EXTD=
EXTT0=
EXTT1=
EXTT2=
EXTT3=
EXTT4=
EXTT5=
EXTT6=
EXTT7=
EXTT8=
EXTT9=
EXTT10=
EXTT11=
EXTT12=
EXTT13=
PLAYORDER=
